<?xml version="1.0" encoding="UTF-8"?>
<svg id="Layer_2" data-name="Layer 2" xmlns="http://www.w3.org/2000/svg" viewBox="0 0 86.4 86.4">
  <defs>
    <style>
      .cls-1 {
        fill: #503f3a;
      }

      .cls-2 {
        fill: #564035;
      }

      .cls-3 {
        fill: #c6b184;
      }

      .cls-4 {
        fill: #564b4a;
      }

      .cls-5 {
        fill: #c45636;
      }

      .cls-6 {
        fill: #544439;
      }

      .cls-7 {
        fill: #51443e;
      }

      .cls-8 {
        fill: #513d35;
      }

      .cls-9 {
        fill: #594e4d;
      }

      .cls-10 {
        fill: #ceb989;
      }

      .cls-11 {
        fill: #ceb889;
      }

      .cls-12 {
        fill: #fefefe;
      }

      .cls-13 {
        fill: #c05536;
      }

      .cls-14 {
        fill: #be5436;
      }

      .cls-15 {
        fill: #554a49;
      }

      .cls-16 {
        fill: #4d3d35;
      }

      .cls-17 {
        fill: #503d35;
      }

      .cls-18 {
        fill: #d2bd8b;
      }

      .cls-19 {
        fill: #ad5035;
      }

      .cls-20 {
        fill: #e0b348;
      }

      .cls-21 {
        fill: #c55636;
      }
    </style>
  </defs>
  <g id="Layer_1-2" data-name="Layer 1">
    <g>
      <path class="cls-12" d="M86.4,0v86.4H0V0h86.4ZM65.11,24.4c-.43-.59,3.28-5.01.29-6.63-.29-.15-1.32-.5-1.62-.5-.97,0-1.92,1.02-2.43,1.1s-1.5-.21-2.49-.06c-3.7.56-6.79,3.9-10.28,4.82-.72.19-1.11-.17-1.76-.12-3.28.22-5.93,3.72-8.88,4.54-1.31.37-2.33.08-3.55.28-.9.15-1.98.83-3,1.07-3.67.85-5.43.13-8.68,2.81-.28.23-.4.8-.63.85-.59.14-1.59-.08-2.32.02-2.83.38-6.19,3.44-3.62,6.21,2.73,2.94,6.44,5.35,9.35,8.12,3.54,3.38,9.41,12.32,14.59,12.23,2.05-.03,4.68-1.29,5.96-2.91,2.59-3.28,5.1-7.84,7.51-11.4,3.6-5.33,7.85-10.27,9.75-16.58,2.02-.2,4.74-2.83,1.81-3.84ZM43.8,60.79c-3.17-.44-1.23,3.1-2.4,5.03-1.24-.53-.69-2.43-1.42-3.25-.62-.7-1.7-.12-2.13-.38-.38-.23-.3-1.91-1.83-1.88-.41,0-.8.26-1.19.24-.77-.04-1.95-1.37-2.94-.41-.04.04-.54.96-.54,1.01v3.83l-.6.37c-2.66-1.95-1.41-6.25-1.9-9.12-.27-1.61-1.39-3.22-1.93-4.77-.22-.64.14-1.72-.83-1.68-.82,2.55,1.57,4.54,1.89,7.09.23,1.91-.59,10.05,3.25,9.43,1.83-.3,1.03-3.6,1.1-4.64.12-1.79,1.2-.27,2.04-.15.68.1,1.54-.3,1.86-.21.52.15,1.29,3.01,3.03,1.89.23,1.23.65,4.1,2.47,3.55,1.54-.46.84-3.91,1.16-4.83.12-.35.6-.31.92-1.11,1.62.23.64.15,1.48,1.28.6.81,1.38,1.73,2.23.63,1.2-1.56-.88-4.5,1.08-5.26.06.64.66.99,1.27.92,1.36-.35.77-3.98.89-5.11.12-1.19.8-2.25.71-3.47-.7-.69-1.67,2.38-1.67,2.75v4.43l-1.51-.69c-2.48,1.01-1.27,3.46-1.36,5.47-1.14.28-.9-1.54-1.89-1.82-1.36-.37-.96.21-1.22.86ZM50.02,60.79c-1.25-1.27-2.64,5.75.12,5.52,1.9-.16-.5-4.52-.12-5.52Z"/>
      <path class="cls-7" d="M65.11,24.4c2.93,1.01.22,3.64-1.81,3.84-1.89,6.31-6.15,11.25-9.75,16.58-2.4,3.56-4.92,8.12-7.51,11.4-1.28,1.62-3.91,2.88-5.96,2.91-5.18.09-11.05-8.85-14.59-12.23-2.9-2.78-6.62-5.18-9.35-8.12-2.58-2.77.79-5.83,3.62-6.21.73-.1,1.74.13,2.32-.02.23-.06.35-.62.63-.85,3.25-2.68,5.01-1.96,8.68-2.81,1.02-.24,2.1-.92,3-1.07,1.22-.21,2.23.08,3.55-.28,2.95-.83,5.6-4.33,8.88-4.54.65-.04,1.04.31,1.76.12,3.48-.92,6.58-4.26,10.28-4.82.99-.15,1.97.15,2.49.06s1.46-1.1,2.43-1.1c.3,0,1.33.35,1.62.5,2.99,1.61-.72,6.04-.29,6.63ZM64.1,24.13c.48-1.19,2.36-4.42,1.09-5.44-.78-.63-2.03-.73-2.72.09.74.72,1.34,1.14,1.1,2.28-.34,1.59-4.31,3.34.53,3.06ZM37.1,45.71c-.09-.74.2-.49.65-.29.63.27,2.07,1.44,2.59,1.96.68.68,1.15,2.06,2.13,2.18,1.56.19,1.83-.85,3.02-1.56,1.07-.64,2.25-.8,3.22-1.8.8-.83,1.47-2.31,1.57-3.46-.03-.14-2.15-.7-1.93-1.57.26-.25,2.72,1.94,4.56.37,1.94-1.65-1.19-5.87,2.56-6.54.86-.15,5.57.17,4.5-1.97-.56-1.12-4.39-1.29.11-3.25-1.88-4.41,2.53-1.75,4.63-3.01,3.17-1.89-3.19-1.52-3.69-2.28-1.22-1.85,2.69-2.85,1.47-4.53-1.79-2.45-7.79.8-9.83,1.82l.36.72c.3.79-1.26.25-1.62.28-.59.05-1.23.62-1.85.67l2.15,1.91c-1.49-.16-2.72-1.26-4.22-1.41-3.17-.31-6,3.2-8.85,4.28l1.09,2.64c-.81-.42-1.29-1.45-2.06-1.88-2.39-1.33-4.06.39-6.25.86-1.57.34-3.26.22-4.85.65-1.33.36-2.2,1.1-3.3,1.84l-.02.65c2.42.93,4.78,2.7,5.96,5.05-1.28-1.07-4.37-3.53-5.82-4.11-2.23-.9-5.45-.54-6.87,1.6-1.32,1.99.79,2.67,1.93,3.82,3.29,3.32,7.07,6.13,10.29,9.58,3.62,3.89,8.72,12.2,15.01,8.08,1.9-1.24,4.48-5.08,1.18-6.11-.86-.27-.82-.1-1.85-.53-1.19-.5-2.51.69-3.82.35.05-.65,1.89-.76,1.67-1.31-.2-.5-3.19-3.08-3.83-3.71ZM62.23,28h-1.91c-.26.36,1.46,1.36.22,2.5-.48.44-1.55.36-1.42,1.09l1.08.49c.68.01,2.18-3.9,2.03-4.08ZM58.64,35.66c-1.46.49-4.07-.47-4.32,1.54-.2,1.63.84,2.63-.36,4.43-.96,1.45-2.11.87-2.75,1.32-.18.13-.96,2.92-2.02,3.97-1.43,1.42-3.69,1.29-4.44,3.1,1.37.07,1.79,1.22,2.53,1.91.24.22.17.37.47.02l10.88-16.28Z"/>
      <path class="cls-15" d="M43.8,60.79c-.32.81-.8.76-.92,1.11-.32.92.37,4.37-1.16,4.83-1.82.55-2.23-2.33-2.47-3.55-1.74,1.12-2.51-1.74-3.03-1.89-.32-.09-1.18.31-1.86.21-.84-.12-1.92-1.64-2.04.15-.07,1.04.73,4.35-1.1,4.64-3.83.62-3.01-7.52-3.25-9.43-.31-2.55-2.71-4.54-1.89-7.09.97-.04.61,1.04.83,1.68.54,1.55,1.66,3.16,1.93,4.77.49,2.87-.76,7.17,1.9,9.12l.6-.37v-3.83c0-.06.5-.97.54-1.01.99-.96,2.17.37,2.94.41.4.02.79-.23,1.19-.24,1.53-.03,1.45,1.65,1.83,1.88.43.26,1.51-.31,2.13.38.72.81.18,2.72,1.42,3.25,1.17-1.93-.77-5.47,2.4-5.03Z"/>
      <path class="cls-9" d="M43.8,60.79c.25-.65-.14-1.23,1.22-.86.99.27.75,2.1,1.89,1.82.09-2.01-1.12-4.47,1.36-5.47l1.51.69v-4.43c0-.38.97-3.44,1.67-2.75.09,1.23-.6,2.28-.71,3.47s.48,4.77-.89,5.11c-.61.07-1.22-.28-1.27-.92-1.96.76.12,3.7-1.08,5.26-.85,1.1-1.63.18-2.23-.63-.84-1.13.15-1.05-1.48-1.28Z"/>
      <path class="cls-4" d="M50.02,60.79c-.38,1,2.02,5.36.12,5.52-2.76.23-1.37-6.79-.12-5.52Z"/>
      <path class="cls-20" d="M29.2,38.05c-1.18-2.35-3.54-4.12-5.96-5.05l.02-.65c1.1-.74,1.97-1.47,3.3-1.84,1.59-.44,3.28-.31,4.85-.65,2.19-.48,3.86-2.19,6.25-.86.77.43,1.26,1.47,2.06,1.88l-1.09-2.64c2.85-1.08,5.67-4.58,8.85-4.28,1.5.14,2.72,1.25,4.22,1.41l-2.15-1.91c.62-.05,1.26-.62,1.85-.67.36-.03,1.92.5,1.62-.28l-.36-.72c2.04-1.02,8.04-4.27,9.83-1.82,1.22,1.67-2.69,2.67-1.47,4.53.5.76,6.87.38,3.69,2.28-2.1,1.25-6.52-1.4-4.63,3.01-4.5,1.96-.67,2.13-.11,3.25,1.07,2.15-3.64,1.82-4.5,1.97-3.75.67-.62,4.89-2.56,6.54s-4.3-.62-4.56-.37c-.22.87,1.9,1.44,1.93,1.57-.09,1.15-.77,2.63-1.57,3.46-.97,1-2.15,1.16-3.22,1.8-1.19.71-1.46,1.75-3.02,1.56-.98-.12-1.45-1.5-2.13-2.18-.52-.52-1.96-1.69-2.59-1.96-.46-.19-.74-.45-.65.29-.67-.67-1.33-1.08-1.91-1.91s-.76-1.98-1.9-2.77c-.64-.44-.96-.23-1.21-.34-1.4-.65-1.86-1.79-2.87-2.63ZM56.89,22.06c-.89.08-1.46,1.05-1.88,1.72-1.22,1.94-2.46,4.85.87,2.07.69-.57,2.2-1.91,1.94-2.87-.09-.33-.54-.95-.93-.91ZM47.15,27.52c-.08,0-.16,0-.24,0-.67.07-1.1-.09-1.85.19-.84.3-2.08,1.61-1.99,2.56,1,3.41,8.35-1.12,5.65-2.76-.92-.56-1.15-.01-1.57.01ZM53.56,29.71c-3.68.36-1,4.94,1.26,1.04l-.74-.96c-.17-.12-.33-.09-.52-.08ZM36.46,33.19c-.16-.11-.24-.47-.46-.6-5.36-3.15-11.3,1.75-4.96,4.71,1.99.93,7.51,1.53,7.67-1.56.09-1.78-1.35-1.95-2.25-2.56ZM46.37,32.61c-.62.1-2.91,1.15-3.51,1.51-2.99,1.8-5.96,7.6-1.86,9.72,4.43,2.3,11.06-6,8.75-9.94-.73-1.24-2.02-1.52-3.38-1.3Z"/>
      <path class="cls-18" d="M29.2,38.05c1.01.85,1.47,1.98,2.87,2.63.58,1.17,1.94,2.53,3.11,3.11.59.83,1.24,1.25,1.91,1.91.64.63,3.63,3.21,3.83,3.71.22.55-1.62.66-1.67,1.31,1.31.34,2.63-.85,3.82-.35,1.02.43.98.26,1.85.53,3.3,1.03.72,4.87-1.18,6.11-6.29,4.12-11.39-4.2-15.01-8.08-3.22-3.45-7-6.26-10.29-9.58-1.14-1.15-3.25-1.83-1.93-3.82,1.42-2.14,4.64-2.5,6.87-1.6,1.45.59,4.54,3.05,5.82,4.11ZM40.45,55.29c1.53,1.83,5.86.03,5.22-2.22-.76-2.67-7.41.7-6.18,3.65.76.06.84-.91.96-1.43Z"/>
      <path class="cls-10" d="M58.64,35.66l-10.88,16.28c-.3.35-.23.21-.47-.02-.74-.68-1.16-1.83-2.53-1.91.75-1.81,3-1.68,4.44-3.1,1.05-1.04,1.83-3.84,2.02-3.97.64-.45,1.78.13,2.75-1.32,1.19-1.79.16-2.8.36-4.43.25-2.01,2.86-1.06,4.32-1.54Z"/>
      <path class="cls-11" d="M64.1,24.13c-4.84.28-.87-1.47-.53-3.06.25-1.15-.36-1.56-1.1-2.28.69-.83,1.94-.72,2.72-.09,1.27,1.02-.61,4.25-1.09,5.44Z"/>
      <path class="cls-3" d="M62.23,28c.16.18-1.35,4.09-2.03,4.08l-1.08-.49c-.13-.73.94-.64,1.42-1.09,1.24-1.14-.49-2.14-.22-2.5h1.91Z"/>
      <path class="cls-8" d="M46.37,32.61c1.36-.22,2.65.05,3.38,1.3,2.32,3.94-4.32,12.24-8.75,9.94-4.1-2.12-1.13-7.92,1.86-9.72.6-.36,2.89-1.41,3.51-1.51ZM46.12,33.56c-.59.14-.78.62-1.14.77-1.12.48-1.63.3-2.74,1.33-4.48,4.17-1.87,10.36,3.45,6.56,2.98-2.13,6.18-10.02.42-8.67Z"/>
      <path class="cls-8" d="M36.46,33.19c.89.61,2.34.78,2.25,2.56-.16,3.09-5.69,2.49-7.67,1.56-6.33-2.97-.4-7.86,4.96-4.71.22.13.31.49.46.6ZM29.51,33.33c-1.35,1.63,1.53,3.2,2.85,3.59,1.78.54,4.25.78,5.42-.96.11-3.15-6.7-4.53-8.27-2.63Z"/>
      <path class="cls-17" d="M46.91,27.52c-.98,1.19-3.25,1.05-2.87,3.11,1.02.43,5.18-1.05,4.2-2.41l-1.09-.71c.43-.03.65-.57,1.57-.01,2.7,1.63-4.65,6.17-5.65,2.76-.09-.94,1.15-2.25,1.99-2.56.75-.27,1.18-.11,1.85-.19Z"/>
      <path class="cls-16" d="M56.89,22.06c.39-.04.84.58.93.91.26.96-1.25,2.3-1.94,2.87-3.33,2.78-2.09-.13-.87-2.07.42-.67.99-1.63,1.88-1.72ZM56.96,22.98c-.4-.45-1.8,1.65-1.56,2.15.81-.49,1.62-1.08,1.56-2.15Z"/>
      <path class="cls-13" d="M47.15,27.52l1.09.71c.98,1.35-3.19,2.84-4.2,2.41-.37-2.06,1.89-1.93,2.87-3.11.08,0,.16,0,.24,0Z"/>
      <path class="cls-2" d="M53.56,29.71c.19-.02.36-.05.52.08l.74.96c-2.26,3.9-4.94-.68-1.26-1.04Z"/>
      <path class="cls-6" d="M35.18,43.8c-1.17-.58-2.53-1.94-3.11-3.11.25.12.57-.1,1.21.34,1.14.79,1.3,1.91,1.9,2.77Z"/>
      <path class="cls-1" d="M40.45,55.29c-.12.52-.2,1.5-.96,1.43-1.23-2.95,5.42-6.32,6.18-3.65.64,2.25-3.69,4.05-5.22,2.22ZM43.75,52.94c-1.36.14-4.02,1.84-1.68,2.3,2.05.4,3.97-2.53,1.68-2.3Z"/>
      <path class="cls-21" d="M46.12,33.56c5.76-1.35,2.56,6.54-.42,8.67-5.32,3.8-7.93-2.4-3.45-6.56,1.11-1.03,1.62-.85,2.74-1.33.36-.15.55-.63,1.14-.77Z"/>
      <path class="cls-5" d="M29.51,33.33c1.57-1.9,8.39-.52,8.27,2.63-1.17,1.75-3.64,1.5-5.42.96-1.32-.4-4.2-1.96-2.85-3.59Z"/>
      <path class="cls-19" d="M56.96,22.98c.06,1.07-.75,1.66-1.56,2.15-.24-.5,1.16-2.59,1.56-2.15Z"/>
      <path class="cls-14" d="M43.75,52.94c2.29-.23.36,2.7-1.68,2.3-2.33-.46.32-2.16,1.68-2.3Z"/>
    </g>
  </g>
</svg>