<?xml version="1.0" encoding="UTF-8"?>
<svg id="Layer_2" xmlns="http://www.w3.org/2000/svg" version="1.1" viewBox="0 0 1006.4 238.9">
  <!-- Generator: Adobe Illustrator 29.5.0, SVG Export Plug-In . SVG Version: 2.1.0 Build 137)  -->
  <defs>
    <style>
      .st0 {
        fill: #c91919;
      }
    </style>
  </defs>
  <g id="Layer_1-2">
    <g>
      <path class="st0" d="M.4,2.1l10.4,146c0,.6.5,1,1.1,1h18.5c.6,0,1.1-.6,1-1.2l-6.8-58.8c0-.6.4-1.1,1-1.2l16.8-.8c.6,0,1,.4,1.1,1l5.1,57.8c0,.5.5.9,1,1l16.4.4c.6,0,1.1-.5,1.1-1.1L57.9,2c0-.5-.5-1-1-1h-15c-.6,0-1.1.5-1,1.1l1.7,34.2c0,.6-.5,1.1-1.1,1.1l-18.6-.4c-.5,0-1-.4-1-1L19.3,2c0-.5-.5-1-1-1H1.4c-.6,0-1.1.5-1,1.1Z"/>
      <path class="st0" d="M120.9,88c-.8-11.7-.4-8.8-1.6-27.6-2.3-35.6-3.3-42.5-9.4-48-8-7.3-19-6.6-20.1-6.5-1.4,0-11.6,1.1-18.1,8.9-5,6-5.4,13.1-4,35.4,1.1,17,2,23.1,2.9,35,2.7,33.8.2,41.9,8.1,51.9,1.7,2.2,9,11.6,20.2,11.9,8.1.2,15.9-4.5,20.3-10.4,5.8-7.8,4-15.3,1.7-50.5h0ZM102,92.4c-2.8,2.2-5.5,2-5.5,2,0,0-2.1-.2-4.2-1.8-5.3-4.4-5.8-25.8-7.4-40.7-.8-7.3-3-25.6,1.3-30.5,2-2.2,4.2-2.5,4.2-2.5,0,0,2.4-.4,5.1,1.4,6,3.9,7.1,25.4,8.5,40.7,1,11.3,2.9,27.4-2.1,31.3h0Z"/>
      <path class="st0" d="M178.2,88c-.8-11.7-.4-8.8-1.6-27.6-2.3-35.6-3.3-42.5-9.4-48-8-7.3-19-6.6-20.1-6.5-1.4,0-11.6,1.1-18.1,8.9-5,6-5.4,13.1-4,35.4,1.1,17,2,23.1,2.9,35,2.7,33.8.2,41.9,8.1,51.9,1.7,2.2,9,11.6,20.2,11.9,8.1.2,15.9-4.5,20.3-10.4,5.9-7.8,4-15.3,1.7-50.5h0ZM159.3,92.4c-2.8,2.2-5.5,2-5.5,2,0,0-2.1-.2-4.2-1.8-5.3-4.4-5.8-25.8-7.4-40.7-.8-7.3-3-25.6,1.3-30.5,2-2.2,4.2-2.5,4.2-2.5,0,0,2.4-.4,5.1,1.4,6,3.9,7.1,25.4,8.5,40.7,1,11.3,2.9,27.4-2.1,31.3h0Z"/>
      <path class="st0" d="M232.5,141.2c-.2-1.1-.8-2.1-1.7-2.9l-2.6-2.1c-.9-.7-1.4-1.7-1.6-2.8l-.3-2.4c-.2-1.6.6-3.1,2-3.7l2-.9c.8-.4,1.3-1.1,1.3-2,.5-43.1-.4-75.6-1.3-90.7-.3-4.8-1-13.8-7.5-20.8-2.5-2.7-5.4-4.5-8-5.7-2.1-1-4.3-1.4-6.5-1.4h-27.9l9.1,140.2h16.1v-12h4.9c1.4-.2,2.6.6,3.2,1.8l5,10.2h14.6l-.8-4.8h0ZM213.3,83.5c-.2.6-1.4,2.2-3.2,2.6-2.1.5-4.3-.8-4.9-1.5-3.3-3.8-4.1-17.5-4.9-29.2-.9-13.8-4.3-33.4-.5-38.3,1.8-2.3,3.9-2.6,3.9-2.6,0,0,1.7-.2,3.6.9,4.6,2.9,4.1,21.2,5.7,38.6.4,4.8,2.1,23.4.3,29.5h0Z"/>
      <path class="st0" d="M318.1,5.8h14.9c1,0,1.9.8,1.9,1.9v118.9c0,6.4-2.9,12.5-8.2,16.1-2.7,1.9-6.1,3.2-10.5,3.2-13.9,0-18.8-5-22.6-18.2-3.2-11.3-4.6-71.1-4.6-71.1h12.8l1.5,26.9s.4,9.7,9.7,9.7,8.3-10.6,8.2-15.8c-.4-20-1.2-27.1-1.2-27.1h-19.7s-12.9-2.2-12.9-12.9V7.5c0-.9.7-1.6,1.6-1.6h8.7s3.4.2,3.4,3.4.3,19,.5,25.7c0,1.6,1.3,2.8,2.9,2.8h8.7c1.6,0,2.9-1.3,2.9-2.8l.2-27.2c0-1,.9-1.9,1.9-1.9h0Z"/>
      <path class="st0" d="M282.5,43.2s-1.3-29.2-6.6-34.6c-2.9-2.9-2.8-5.3-21.3-6.3-17.7-1-16.9,5-16.9,5,0,0-.4,1.6-.3,3.6,0,.9.4,4.2,2.2,6.1,1.8,2,4.1,1.5,9.9,2,6.7.6,10,.9,12.2,2.6,1.4,1.2,3.3,3.7,2.9,10.1-.1,2.2-1.9,3.9-4.1,3.9h-10.3c-7,0-12.8,5.5-12.9,12.5v2.5l4,92.3c0,1.8,1.6,3.2,3.4,3.2h37.5c1.9,0,3.4-1.6,3.4-3.5l-3.2-99.3h.1ZM261.1,85.2h-5.8c-2.9,0-5.3-2.4-5.3-5.3v-31c0-1.5,1.2-2.7,2.7-2.7h8.1c1.5,0,2.6,1.2,2.7,2.6l1,32.9c0,1.9-1.5,3.5-3.4,3.5h0Z"/>
      <path class="st0" d="M374.3,5.3l2.3,140.8h19l-1.7-60.6,21.9-.2c1.5,0,2.7-1.2,2.6-2.7l-1.2-40.6c0-1.4-1.2-2.5-2.6-2.6l-19-.2c-.8,0-1.5-.7-1.5-1.5l-.6-15.3c0-.9.6-1.6,1.5-1.6l23.6-.5V5.3h-44.3Z"/>
      <path class="st0" d="M469.2,11s-3.6-7.2-19.4-7.2c0,0-24.6,0-24.6,22.1s-2.5,98.2,3.2,108.1c2.5,4.4,7.8,11.2,21.3,12.1,3.8.2,7.3-.8,10.3-2.4,7.8-4.1,12.7-12.3,13-21.2l2.7-69s.6-37.7-6.7-42.5h.2ZM458.8,82c-.3,3.8-13.1,13.6-15,0-1.7-12.3-1.1-55-1.1-60.5s3.9-5.8,6.2-6.6c.9-.3,2-.4,2.9-.1l1.4.4c1.5.4,2.7,1.6,3,3.2,1.9,10.7,2,17.6,2,17.6,0,0,1.1,41.1.8,46.1h-.2Z"/>
      <path class="st0" d="M523.9,126c4.2-2.6,5.9-14.2,5.9-14.2l1.1-87.8s0-3.4-2-7.7c-1.7-3.5-4.1-6.1-6.4-8-3.7-3-8.4-4.6-13.2-4.7-3.2,0-8,0-14.4,0-5.4,0-9.8,0-12.7,0l1.5,142.3h15.7v-14.4l8.6.4s.2,0,.2.1l6.5,13.8h12.2v-6.3c0-.7-.2-1.4-.7-1.9l-4.8-5.7s-1.8-3.5,2.4-6.1h0ZM511.9,74.8c0,.7,0,10.8-1.3,12.1-2.6,2.6-7.2,1.6-9.5-1.2-.6-.7-1-1.6-1.2-2.6-.5-3.1,0-56.7,0-63.3s5.4-5.2,5.4-5.2c0,0,4.1,0,5.1,7.5,2,14.9,1.5,23.5,1.5,23.5,0,0,.1,8.4,0,29.3h0Z"/>
      <polygon class="st0" points="625.1 5.3 621.2 144.4 640.2 144.4 646.1 5.3 625.1 5.3"/>
      <rect class="st0" x="621.2" y="151.9" width="20.4" height="18.4"/>
      <path class="st0" d="M658,5.3h47.2s1,3.1,0,7.9-31,72.4-31,72.4h26.2l-2.6,60.4-47.2-1.6s.7-49.8,2.9-62.7,28.1-62.1,28.1-62.1l-23-.6-.7-13.8h0Z"/>
      <path class="st0" d="M715.2,5.3v13.9h22c1.1,0,1.8,1.2,1.1,2.1l-27.2,40.6c-.7,1.1-1.2,2.4-1.2,3.7l-4.3,80.4h48.4l3.9-83.7h-23.7c-1.1,0-1.7-1.2-1.1-2.1l26.7-41.7c.6-1,1-2.1,1.2-3.2l1.4-10.1h-47.2Z"/>
      <path class="st0" d="M813.2,32.3c0-4.6-1.1-25.9-10.7-27-28.1-3.2-29.1-1.2-31.4,6.9-2.3,8.1,6.8,9.4,13.9,8.7,7-.6,10.5,3.1,10,14.8,0,.4-.3.7-.7.7-3.7-.2-21.7-2.4-26.1,7.2-2.1,4.5-5.8,102.5-5.8,102.5h43l3.8-44.5c0-.5,3.9-68.7,3.9-69.2h0ZM792.7,68.9c-.3,7-1,12.1-3.2,15-1.3,1.7-3.3,2.7-6,2.8-2.2,0-3.6-.9-4.5-2.8-2.2-4.4-1.4-13.4-.7-23.6,1-14.4,7.9-13.6,7.9-13.6,9.1-1.3,7,10.9,6.5,22.1h0Z"/>
      <path class="st0" d="M875.9,3.9h-25.2l-7.9,140.8s42.8,7.9,44.8-13.7,9.7-109.6,9.7-109.6c0,0,2.3-20-21.3-17.5h0ZM881.4,28.7l-1.8,42.8c0,16-13.7,14.7-18.2,14.3-.8,0-1.3-.7-1.3-1.5l4.5-68.6h8.4c2.6,0,5,1.3,6.3,3.6,2.2,4,2.1,9.5,2.1,9.5h0Z"/>
      <path class="st0" d="M948.1,30.7c0-4.6-1.1-25.9-10.7-27-28.1-3.2-29.1-1.2-31.4,6.9-2.3,8.1,6.8,9.4,13.9,8.7,7-.6,10.5,3.1,10,14.8,0,.4-.3.7-.7.7-3.7-.2-21.7-2.4-26.1,7.2-2.1,4.5-5.8,102.5-5.8,102.5h43l3.8-44.5c0-.5,3.9-68.7,3.9-69.2h0ZM927.6,67.3c-.3,7-1,12.1-3.2,15-1.3,1.7-3.3,2.7-6,2.8-2.2,0-3.6-.9-4.5-2.8-2.2-4.4-1.4-13.4-.7-23.6,1-14.4,7.9-13.6,7.9-13.6,9.1-1.3,7,10.9,6.5,22.1h0Z"/>
      <path class="st0" d="M568.5,3.7c-.8,78.3-1.5,156.5-2.3,234.8h17.1v-105.4s32,5.8,32-28.8,2.8-101.4,2.8-101.4l-49.7.8h.1ZM597.7,80.5c-1.3,6.1-2.9,6.2-5.9,6.2s-4-.9-4.5-7.2c-1.2-16.9-.4-40.8-.4-40.8,0-12.5-.3-18,1.7-22.8,1.1-2.8,5.6-2.9,5.6-2.9,1.8.1,3.5-.2,3.9,5.2,1,11.4.9,33.2.9,33.2,0,0,.4,21-1.3,29.1h0Z"/>
      <path class="st0" d="M987.8.4l18.2,1.9-13.1,112.9s-5.2,36.2-25.6,32.6-20.1-15.8-17.7-43,3.5-49.2,3.5-49.2l13.6.8s.5,13-.8,21.5c-1.4,8.7-1.8,15.6,3.8,15.5,10.9-.3,8.7-7.5,10.8-19.8v-.4l1-17.2c.2-2.6-1.9-4.8-4.5-4.7-7.5.2-21.1-1.1-22.7-12.7-1.6-11.7.9-25.7,2.3-32.3.5-2.2,2.6-3.7,4.8-3.5l5,.5c2.3.2,4.1,2.3,4,4.6l-1,26.2c0,2.3,1.7,4.4,4,4.6h.8c4.2.5,8-2.4,8.6-6.6l4.6-31.7h.4Z"/>
    </g>
  </g>
</svg>